# xmcd
#
# Track frame offsets:
#	150
#	15058
#	28195
#	44076
#	58842
#	74835
#	91208
#	106661
#	124251
#	139934
#	153327
#	168004
#	187857
#	206099
#	224232
#	242042
#
# Disc length: 3442 seconds
#
# Revision: 0
# Processed by: cddbd v1.5.2PL0 Copyright (c) Steve Scherf et al.
# Submitted via: audiograbber 1.83.01
#
DISCID=e70d7010
DTITLE=Texas Music - TexMix Spring 2017
DYEAR=2017
DGENRE=Americana
TTITLE0=Patrick Fleming - The Honeymoon Is Over
TTITLE1=Mandy Rowden - Let Me In
TTITLE2=Ricky Espinoza - Downtown NOLA
TTITLE3=Paul Nipper - Asphalt and Heartaches
TTITLE4=Towne Adams - Broke With A Broken Heart
TTITLE5=Zack Walther Band - What Kind of Man
TTITLE6=Chrissy Bliss - Can We Only Hold The Night
TTITLE7=Emmeline - If You Can't Love Me
TTITLE8=Tomar And The FCS - Homeless
TTITLE9=Chin's Mojo - Desire
TTITLE10=Amanda Cevallos - Ready For The Times To Get Better
TTITLE11=Derek Anthony - What's Love Supposed To (feat. Holly Tucker)
TTITLE12=Ruthie Foster - Working Woman
TTITLE13=Caleb Haynes - Completely Crazy
TTITLE14=Highway 31 - Miss Your Love
TTITLE15=Michael O'Neal - Cubs Win
EXTD=
EXTT0=
EXTT1=
EXTT2=
EXTT3=
EXTT4=
EXTT5=
EXTT6=
EXTT7=
EXTT8=
EXTT9=
EXTT10=
EXTT11=
EXTT12=
EXTT13=
EXTT14=
EXTT15=
PLAYORDER=
